<svg width="818" height="158" viewBox="0 0 818 158" fill="none" xmlns="http://www.w3.org/2000/svg">
<path fill-rule="evenodd" clip-rule="evenodd" d="M55.4775 0L0 31.0674V93.6461L0.000190206 93.6462V144.685L22.1912 158V106.606L55.4775 126.045L108.736 93.6461V31.0674L55.4775 0ZM21.3034 43.6694L54.8164 24.8539L86.9888 43.6694V81.5692L54.8164 101.191L21.3034 81.5692V43.6694Z" fill="white"/>
<path d="M174.112 118V50.8H213.856C218.72 50.8 223.04 51.792 226.816 53.776C230.656 55.76 233.696 58.48 235.936 61.936C238.176 65.392 239.296 69.36 239.296 73.84C239.296 78.64 238.112 82.928 235.744 86.704C233.44 90.48 230.24 93.456 226.144 95.632C222.048 97.744 217.44 98.8 212.32 98.8H194.848V118H174.112ZM194.464 81.136H207.904C209.76 81.136 211.392 80.88 212.8 80.368C214.272 79.856 215.424 79.088 216.256 78.064C217.152 76.976 217.6 75.696 217.6 74.224C217.6 72.88 217.152 71.792 216.256 70.96C215.424 70.128 214.272 69.52 212.8 69.136C211.392 68.688 209.76 68.464 207.904 68.464H194.464V81.136ZM264.206 118V50.8H301.55C307.63 50.8 312.654 51.664 316.622 53.392C320.654 55.12 323.694 57.616 325.742 60.88C327.79 64.144 328.814 68.112 328.814 72.784C328.814 77.328 327.662 81.36 325.358 84.88C323.118 88.336 320.046 91.056 316.142 93.04C312.238 95.024 307.758 96.016 302.702 96.016H283.598V118H264.206ZM309.134 118L287.438 87.664L308.942 85.264L332.558 118H309.134ZM283.598 81.616H300.014C301.55 81.616 302.926 81.36 304.142 80.848C305.358 80.272 306.35 79.44 307.118 78.352C307.886 77.264 308.27 75.888 308.27 74.224C308.27 72.624 307.886 71.312 307.118 70.288C306.35 69.2 305.326 68.4 304.046 67.888C302.766 67.376 301.294 67.12 299.63 67.12H283.598V81.616ZM393.729 118.96C387.457 118.96 381.729 118.096 376.545 116.368C371.361 114.576 366.881 112.112 363.105 108.976C359.329 105.84 356.417 102.16 354.369 97.936C352.321 93.648 351.297 88.976 351.297 83.92C351.297 78.864 352.321 74.224 354.369 70C356.481 65.712 359.425 62 363.201 58.864C366.977 55.728 371.425 53.296 376.545 51.568C381.729 49.776 387.425 48.88 393.633 48.88C399.841 48.88 405.505 49.776 410.625 51.568C415.809 53.296 420.289 55.76 424.065 58.96C427.841 62.096 430.753 65.808 432.801 70.096C434.913 74.32 435.969 78.896 435.969 83.824C435.969 88.88 434.913 93.552 432.801 97.84C430.753 102.064 427.841 105.776 424.065 108.976C420.289 112.112 415.809 114.576 410.625 116.368C405.505 118.096 399.873 118.96 393.729 118.96ZM393.633 99.76C396.705 99.76 399.553 99.376 402.177 98.608C404.801 97.776 407.041 96.656 408.897 95.248C410.753 93.776 412.193 92.08 413.217 90.16C414.305 88.24 414.849 86.16 414.849 83.92C414.849 81.68 414.305 79.6 413.217 77.68C412.193 75.76 410.753 74.096 408.897 72.688C407.041 71.216 404.801 70.096 402.177 69.328C399.553 68.496 396.705 68.08 393.633 68.08C390.561 68.08 387.713 68.496 385.089 69.328C382.529 70.096 380.289 71.216 378.369 72.688C376.449 74.096 374.977 75.76 373.953 77.68C372.929 79.6 372.417 81.68 372.417 83.92C372.417 86.16 372.929 88.24 373.953 90.16C374.977 92.08 376.449 93.776 378.369 95.248C380.289 96.656 382.529 97.776 385.089 98.608C387.713 99.376 390.561 99.76 393.633 99.76ZM460.049 118V50.8H477.906L507.282 89.104H493.842L523.314 50.8H540.978V118H521.01V101.2C521.01 95.824 521.138 90.8 521.394 86.128C521.714 81.456 522.226 76.72 522.93 71.92L525.042 78.256L503.634 103.888H497.298L475.698 77.968L478.098 71.92C478.866 76.656 479.378 81.36 479.634 86.032C479.89 90.64 480.018 95.696 480.018 101.2V118H460.049ZM569.268 118V50.8H609.012C613.876 50.8 618.196 51.792 621.972 53.776C625.812 55.76 628.852 58.48 631.092 61.936C633.332 65.392 634.452 69.36 634.452 73.84C634.452 78.64 633.268 82.928 630.9 86.704C628.596 90.48 625.396 93.456 621.3 95.632C617.204 97.744 612.596 98.8 607.476 98.8H590.004V118H569.268ZM589.62 81.136H603.06C604.916 81.136 606.548 80.88 607.956 80.368C609.428 79.856 610.58 79.088 611.412 78.064C612.308 76.976 612.756 75.696 612.756 74.224C612.756 72.88 612.308 71.792 611.412 70.96C610.58 70.128 609.428 69.52 607.956 69.136C606.548 68.688 604.916 68.464 603.06 68.464H589.62V81.136ZM679.234 118V68.464H653.122V50.8H726.658V68.464H699.97V118H679.234Z" fill="white"/>
</svg>
